<svg xmlns="http://www.w3.org/2000/svg" viewBox="0 0 1600 900" role="img" aria-label="Digital God deep dive card art">
  <defs>
    <linearGradient id="bg" x1="0" y1="0" x2="1" y2="1">
      <stop offset="0%" stop-color="#13131b" />
      <stop offset="60%" stop-color="#171223" />
      <stop offset="100%" stop-color="#241336" />
    </linearGradient>
    <linearGradient id="band" x1="0" y1="0" x2="1" y2="0">
      <stop offset="0%" stop-color="#2a103f" />
      <stop offset="50%" stop-color="#321250" />
      <stop offset="100%" stop-color="#2a103f" />
    </linearGradient>
    <filter id="glow" x="-50%" y="-50%" width="200%" height="200%">
      <feGaussianBlur stdDeviation="4" result="blur" />
      <feMerge>
        <feMergeNode in="blur" />
        <feMergeNode in="SourceGraphic" />
      </feMerge>
    </filter>
  </defs>
  <rect width="1600" height="900" fill="url(#bg)" />
  <rect x="0" y="230" width="1600" height="210" fill="url(#band)" />
  <g filter="url(#glow)">
    <rect x="176" y="308" width="14" height="52" rx="7" fill="#2f5f52" />
    <rect x="206" y="294" width="14" height="80" rx="7" fill="#6f4bac" />
    <rect x="236" y="272" width="14" height="124" rx="7" fill="#456e61" />
    <rect x="266" y="246" width="14" height="176" rx="7" fill="#6e45a8" />
    <rect x="296" y="284" width="14" height="100" rx="7" fill="#3e685d" />
    <rect x="326" y="226" width="14" height="216" rx="7" fill="#8452c3" />
    <rect x="356" y="266" width="14" height="136" rx="7" fill="#4a7568" />
    <rect x="386" y="240" width="14" height="188" rx="7" fill="#6d46a7" />
    <rect x="416" y="294" width="14" height="80" rx="7" fill="#3e675d" />
    <rect x="446" y="254" width="14" height="160" rx="7" fill="#7f50bd" />
    <rect x="476" y="268" width="14" height="132" rx="7" fill="#4f7b6d" />
    <rect x="506" y="286" width="14" height="96" rx="7" fill="#6a43a1" />
    <rect x="566" y="300" width="14" height="68" rx="7" fill="#3a6358" />
    <rect x="596" y="270" width="14" height="128" rx="7" fill="#6f4bac" />
    <rect x="626" y="286" width="14" height="96" rx="7" fill="#3f675c" />
    <rect x="656" y="278" width="14" height="112" rx="7" fill="#6f4aac" />
    <rect x="686" y="248" width="14" height="172" rx="7" fill="#3f685d" />
    <rect x="716" y="286" width="14" height="96" rx="7" fill="#7548b2" />
    <rect x="746" y="258" width="14" height="152" rx="7" fill="#3e665b" />
    <rect x="776" y="278" width="14" height="112" rx="7" fill="#7e50bc" />
    <rect x="836" y="288" width="14" height="92" rx="7" fill="#3f675d" />
    <rect x="866" y="256" width="14" height="156" rx="7" fill="#7448b1" />
    <rect x="896" y="272" width="14" height="124" rx="7" fill="#40695f" />
    <rect x="926" y="286" width="14" height="96" rx="7" fill="#6c44a4" />
    <rect x="956" y="268" width="14" height="132" rx="7" fill="#3f675d" />
    <rect x="986" y="250" width="14" height="168" rx="7" fill="#6f4aac" />
    <rect x="1016" y="284" width="14" height="100" rx="7" fill="#3f675d" />
    <rect x="1046" y="292" width="14" height="84" rx="7" fill="#6b43a2" />
    <rect x="1076" y="264" width="14" height="140" rx="7" fill="#40695f" />
    <rect x="1106" y="278" width="14" height="112" rx="7" fill="#8a56cb" />
  </g>
</svg>
